<svg xmlns="http://www.w3.org/2000/svg" viewBox="0 0 902 902">
<g fill="#000000" transform="translate(0,902) scale(0.1,-0.1)" stroke="none">
fill="#000000" stroke="none">
<path d="M7450 7804 c-105 -28 -182 -55 -283 -100 -235 -106 -428 -237 -867
-589 -497 -398 -624 -485 -915 -626 -186 -90 -303 -135 -498 -190 -470 -135
-973 -173 -1562 -119 -231 22 -521 75 -823 151 -215 54 -326 89 -857 272 -548
189 -887 165 -1131 -78 -177 -177 -231 -379 -241 -905 -6 -323 4 -422 58 -584
35 -105 73 -177 137 -259 58 -73 116 -116 234 -171 180 -86 401 -128 663 -129
235 0 385 32 752 164 529 190 828 259 1118 259 100 0 307 -26 400 -50 94 -25
257 -100 343 -159 260 -176 449 -459 527 -785 101 -422 14 -846 -259 -1261
-151 -229 -299 -393 -666 -735 -479 -446 -583 -571 -657 -785 -33 -95 -41
-227 -19 -319 28 -119 77 -198 201 -322 147 -148 280 -236 515 -337 381 -164
595 -184 819 -77 104 50 187 117 328 264 175 183 321 401 642 959 356 619 538
1178 580 1787 6 80 15 224 21 320 56 912 234 1414 641 1804 89 86 156 137 314
241 321 212 618 368 1116 588 130 57 270 126 310 153 204 135 302 311 284 512
-22 256 -221 620 -457 837 -243 222 -545 328 -768 269z"/>
<path d="M8085 5445 c-235 -43 -532 -165 -792 -328 -548 -340 -775 -713 -862
-1417 -6 -47 -22 -274 -36 -505 -29 -479 -46 -649 -80 -821 -49 -245 -110
-416 -312 -878 -200 -459 -215 -500 -221 -581 -12 -184 75 -345 209 -388 107
-35 183 -15 444 115 167 84 295 162 640 388 182 120 413 266 515 326 358 208
533 329 711 486 154 138 260 275 335 432 117 248 133 449 59 761 -76 319 -101
538 -92 800 7 209 29 367 82 603 60 265 69 331 62 486 -8 188 -46 304 -132
403 -42 50 -154 108 -234 123 -72 13 -210 11 -296 -5z"/>
</g>
<g fill="#000000" transform="translate(0,902) scale(0.1,-0.1)" stroke="none">
fill="#000000" stroke="none">
<path d="M4600 9010 c-150 -18 -284 -70 -417 -162 -42 -29 -171 -128 -286
-220 -115 -92 -248 -193 -295 -224 -211 -141 -629 -313 -1042 -429 -189 -53
-564 -147 -680 -170 -223 -44 -346 -95 -439 -180 -68 -64 -101 -131 -109 -221
-13 -168 82 -295 303 -404 122 -60 215 -87 500 -146 121 -25 285 -58 365 -75
207 -42 407 -75 620 -101 161 -19 234 -22 560 -22 331 -1 394 2 535 21 701 96
1300 337 1752 705 309 251 452 429 484 599 10 56 9 73 -6 124 -44 152 -132
231 -520 464 -577 348 -979 482 -1325 441z"/>
</g>
<g fill="#000000" transform="translate(0,902) scale(0.1,-0.1)" stroke="none">
fill="#000000" stroke="none">
<path d="M3240 4484 c-258 -27 -372 -63 -778 -250 -339 -156 -452 -194 -703
-233 -188 -30 -263 -34 -394 -21 -100 9 -150 21 -300 70 -261 85 -324 100
-430 100 -82 0 -98 -3 -153 -31 -129 -64 -185 -178 -203 -409 -13 -171 -12
-681 1 -843 29 -354 115 -729 206 -898 59 -109 185 -214 599 -495 137 -93 305
-190 403 -233 413 -181 688 -119 1109 251 136 120 444 435 658 673 99 110 224
247 279 305 135 143 299 335 370 433 76 108 149 258 183 382 26 93 28 113 28
285 -1 161 -4 196 -24 270 -85 315 -306 550 -581 619 -77 19 -208 31 -270 25z"/>
</g>
</svg>
